# xmcd
#
# Track frame offsets:
#	150
#	13450
#	26531
#	46843
#	60802
#	76514
#	93749
#	108763
#	128456
#	148464
#
# Disc length: 2315 seconds
#
# Revision: 0
# Processed by: cddbd v1.4PL0 Copyright (c) Steve Scherf et al.
# Submitted via: EasyCDDAExtractor 4.6.9.1
#
DISCID=7509090a
DTITLE=Bobby Boyd - The Honky Tonk Tree
DYEAR=1900
DGENRE=country
TTITLE0=Two Of A Kind Workin' On A Full House
TTITLE1=Load Da' Wagon
TTITLE2=I Would Still Have You
TTITLE3=The Honky Tonk Tree
TTITLE4=I Don't Need No Woman Like That
TTITLE5=Best Of The Blues
TTITLE6=Crazy 'Bout My Baby
TTITLE7=Paw Paw
TTITLE8=Down At The Hilltop
TTITLE9=Fine Line
EXTD=
EXTT0=
EXTT1=
EXTT2=
EXTT3=
EXTT4=
EXTT5=
EXTT6=
EXTT7=
EXTT8=
EXTT9=
PLAYORDER=
